PathFileType	4	(X/Y/Z)	RBDS024\RBDS024runT25.trc
DataRate	CameraRate	NumFrames	NumMarkers	Units	OrigDataRate	OrigDataStartFrame	OrigNumFrames
150.000000	150.000000	5	33	mm	150.000000	2250	4500
Frame#	Time	L.ASIS			L.Heel.Bottom			L.Heel.Lateral			L.Heel.Top			L.Iliac.Crest			L.MT1			L.MT5			L.PSIS			L.Shank.Bottom.Lateral			L.Shank.Bottom.Medial			L.Shank.Top.Lateral			L.Shank.Top.Medial			L.Thigh.Bottom.Lateral			L.Thigh.Bottom.Medial			L.Thigh.Top.Lateral			L.Thigh.Top.Medial			R.ASIS			R.ASY			R.Heel.Bottom			R.Heel.Lateral			R.Heel.Top			R.Iliac.Crest			R.MT1			R.MT5			R.PSIS			R.Shank.Bottom.Lateral			R.Shank.Bottom.Medial			R.Shank.Top.Lateral			R.Shank.Top.Medial			R.Thigh.Bottom.Lateral			R.Thigh.Bottom.Medial			R.Thigh.Top.Lateral			R.Thigh.Top.Medial			
		X1	Y1	Z1	X2	Y2	Z2	X3	Y3	Z3	X4	Y4	Z4	X5	Y5	Z5	X6	Y6	Z6	X7	Y7	Z7	X8	Y8	Z8	X9	Y9	Z9	X10	Y10	Z10	X11	Y11	Z11	X12	Y12	Z12	X13	Y13	Z13	X14	Y14	Z14	X15	Y15	Z15	X16	Y16	Z16	X17	Y17	Z17	X18	Y18	Z18	X19	Y19	Z19	X20	Y20	Z20	X21	Y21	Z21	X22	Y22	Z22	X23	Y23	Z23	X24	Y24	Z24	X25	Y25	Z25	X26	Y26	Z26	X27	Y27	Z27	X28	Y28	Z28	X29	Y29	Z29	X30	Y30	Z30	X31	Y31	Z31	X32	Y32	Z32	X33	Y33	Z33	

2251	15	2172.268744643176	908.501047907883	897.1046481777512	1777.572813086031	410.3247600057714	929.6136320957377	1804.191694776674	393.254710628604	887.4149438943791	1822.243025097444	412.5688953254678	931.7328707242573	2085.183180047843	978.0608117028302	837.0827396974719	1845.704087124343	197.8208873679533	968.2303850093433	1835.139672685117	231.6132965867173	853.9278865359295	1987.480621553243	954.9086855081696	944.1076905283124	1938.839018749927	374.6680209216802	879.2829146814446	1926.472460806932	418.7744511765475	902.0541650531081	2014.809473177735	400.0236281165967	865.2982605706723	2005.707190020307	446.0204111277382	890.037445289524	2215.801731400526	555.5008827356684	845.6933684788916	2160.962432307385	527.584734816975	881.8060777634727	2155.394460261609	646.3386675124171	828.7132013368182	2102.919316659587	620.1724876732425	863.5621883495851	2148.26146648781	925.6687358760137	1135.171892674565	2042.956915613277	79.6421791164328	1031.048692634681	1854.992373703479	41.41380998381248	1006.265908635124	1883.4276984694	55.97564799999557	1054.401451677636	1867.935431632617	84.2629539131359	1008.716685613123	2069.67162502264	990.0887613504721	1177.456613729757	2075.168963636293	41.2575752851541	978.7004108089402	2038.695409604729	35.04967267444931	1095.300155256495	1980.310458311041	963.9488397058708	1045.866797409615	1968.271018093312	161.365122894554	1085.311476966617	1936.781754404213	192.4540712473188	1051.568599708714	2002.052107942251	229.770691918778	1114.003698932653	1971.668205240873	258.9585858838433	1079.755423227201	2113.476218572449	551.563527235033	1171.559575604248	2055.416958604902	539.3907207860641	1129.001732191583	2076.729450463023	654.5009771109691	1186.670465443512	2022.729398620033	642.5451113175623	1145.638635071027	
2252	15.00666666666667	2171.777603085372	911.912504787207	897.0944121765914	1786.86237034116	399.2878784640345	929.9732962907938	1814.310984920332	383.5733811296844	887.7251581540371	1831.373521241123	403.7591185632372	932.0256413339638	2084.382348900665	981.5937427161415	836.9993690677027	1865.150935859621	190.4787292665386	968.2923067301351	1852.836958973775	223.742745116265	854.0163078051077	1987.083507981749	958.46398400499	944.0857752556491	1949.8470510202	370.7687180316096	879.3874907054002	1935.913812899677	414.3484029754869	902.2264472044994	2024.810391921265	398.9903083140361	865.3213751553802	2014.050248103532	444.5437085018411	890.1640376746393	2222.065668670258	562.4748788667546	845.1580137636469	2167.89922712423	533.2094418002329	881.1804914668451	2159.45511068253	651.770376504824	828.1220999679495	2107.524788550114	624.247226658955	862.8198446585134	2147.712473050797	928.1968158286347	1134.986514332987	2026.620342921997	80.00765874688878	1030.941490738289	1838.35798454714	43.75003741969313	1006.295733195357	1866.959232906501	58.06453391385654	1054.407065752313	1851.671113363109	86.46272436950072	1008.73519981183	2070.18181336497	993.0591429562081	1177.028051747113	2058.188932247429	41.1497044661597	978.6044784401064	2021.722973265152	35.32329093237864	1095.101915730749	1980.052822306253	967.013819080338	1045.932178432296	1952.715275241747	163.1197290817777	1084.830563698995	1921.447794673938	194.3735284473395	1051.065787035761	1987.123041555748	231.2946334783047	1113.360256575523	1956.951669487456	260.6252578715423	1079.045568767483	2104.306300894341	552.8235531349588	1170.586155249063	2045.891274873939	542.2318489860365	1128.08705405787	2070.37993698221	656.6060439436017	1185.859020292244	2016.043755710412	646.2362953305517	1144.827358682685	
2253	15.01333333333333	2171.576543497804	915.7623552758755	897.270280707256	1796.350668994723	387.3279702566699	930.632310970169	1824.529674147934	373.0720893400552	888.3162132490116	1840.570431398003	394.1532766272493	932.5805793991715	2084.02523606518	985.7169752760366	837.0422615728072	1885.184730446998	182.894330908952	968.4701309139255	1870.855133850099	215.5295253410158	854.28552536267	1986.91488652789	962.5721537384987	944.1208604461548	1960.689697776215	366.4836816687861	879.6034622469749	1945.102656412478	409.4193305082824	902.5684216036611	2034.419287488925	397.7579261382173	865.4010569244522	2021.932296284715	442.746804015135	890.4052872442389	2227.743455963579	569.8533034347849	844.6195469209925	2174.274390338139	539.4074559607385	880.6636160042258	2163.171130084851	657.6931175245782	827.5632328410949	2111.801962431054	628.9804119408882	862.1995768061319	2147.367231241593	931.0056068636017	1134.959386225381	2010.397796388155	80.49736218266854	1030.8072873287	1821.85575296661	46.56997082829758	1006.28984839753	1850.65022154044	60.58415708765806	1054.373563674234	1835.587853858408	89.12013493994627	1008.720380469757	2070.968122085155	996.3380606934131	1176.697949282067	2041.229413892239	41.13385176375282	978.4878466315804	2004.799910397234	35.7031434065074	1094.825614175892	1980.039496184529	970.5275837571361	1046.082823336218	1937.188900404824	165.2987037525397	1084.253482908319	1906.119169522077	196.6384928273399	1050.428801660887	1972.129616912516	233.3056308260503	1112.576471125215	1942.128461829165	262.7136711233646	1078.170320479448	2094.91363554211	554.695551310923	1169.3528215393	2036.275468653209	545.8621450250733	1126.777644675194	2063.9691817642	659.2405182621784	1184.873030909368	2009.397491092288	650.62726456753	1143.735689383179	
2254	15.02	2171.654043047885	920.0753429415349	897.601919050717	1806.165935085642	374.5293935627068	931.5570041107039	1834.961723745866	361.8097676427124	889.1531622515918	1849.952169149639	383.7988993774221	933.3642989085538	2084.077850703411	990.4203233845836	837.194611609784	1905.776480601329	175.1699098271423	968.7529484583013	1889.214259707005	207.0449142690824	854.7224131289588	1986.971309439089	967.1893826568063	944.2238883029294	1971.439205029807	361.8103460840588	879.918919262494	1954.130615143296	403.9787610976318	903.0638775421691	2043.696175649709	396.2796985611189	865.5329782515801	2029.43378949915	440.5802922847477	890.7515558222437	2232.805773103038	577.5167432761137	844.0779079907218	2180.040536303643	546.0650212027487	880.251676453003	2166.510393883089	664.0134873418262	827.0319967664252	2115.708972446278	634.2868803593026	861.7005152935474	2147.260429053285	934.0594144322741	1135.065400637428	1994.33827282585	81.10677465714549	1030.647733724833	1805.527274660478	49.9394192241234	1006.237182053101	1834.54738253572	63.58397279492895	1054.29075470163	1819.740753176709	92.29413414818401	1008.664089987256	2072.036120496034	999.8647246561513	1176.495945369811	2024.309130535612	41.19659298566576	978.3499244489255	1987.955472961806	36.18770219096653	1094.469231373679	1980.290326311788	974.4622157156169	1046.332566764953	1921.745251351098	167.9311913173512	1083.585443651509	1890.861460247031	199.2865698451075	1049.651527301168	1957.124979682722	235.8314480073691	1111.660061138473	1927.26310715797	265.2584949087505	1077.13484668886	2085.375535150352	557.1905619271471	1167.885176460686	2026.638097903282	550.2825454161595	1125.128444347312	2057.573188319471	662.4135362108509	1183.735820992739	2002.861862490326	655.7119806349092	1142.414644070604	
2255	15.02666666666667	2171.987937127844	924.8706571276863	898.0482725087315	1816.426331609447	360.9887180135896	932.709176170462	1845.713953535698	349.8566508716108	890.1958720614122	1859.632354648113	372.7519642499586	934.3385118075353	2084.492922366989	995.6737807829765	837.4341779514282	1926.886054532387	167.4006806345778	969.1323982694936	1907.932416125669	198.3565237856123	855.3132152126885	1987.244080434864	972.2610329417354	944.401862384599	1982.170752329095	356.7487812204348	880.3217944004073	1963.092756204495	398.0241867960397	903.692943667793	2052.70990534649	394.5097729790659	865.7131387963015	2036.641413994791	437.9996527701214	891.1906343773412	2237.233834049653	585.3488212035705	843.5298705742506	2185.161184281033	553.0664944393901	879.932587581196	2169.448953918782	670.6373064657517	826.5218605300994	2119.211692689839	640.0764000136974	861.3169104884323	2147.420963633932	937.3363928929881	1135.262318670452	1978.497817122805	81.83024137149373	1030.468290455771	1789.421544728672	53.92010932137199	1006.130401860698	1818.701731440995	67.10915795553971	1054.15395547979	1804.193406679071	96.03843151841879	1008.562130629685	2073.398030550845	1003.599937148245	1176.430793000734	2007.450747047974	41.32153361604278	978.1916986873498	1971.223032820118	36.77720565662172	1094.038596316921	1980.817562718187	978.7824416689342	1046.689615527607	1906.446276831146	171.0453709187962	1082.839670072928	1875.749060482143	202.3553204616519	1048.736238379301	1942.170427924956	238.8969869428385	1110.629929222829	1912.432128582526	268.2914689108531	1075.9541456028	2075.784202038678	560.313305333834	1166.233433670022	2017.059294665382	555.4754358345564	1123.223967155609	2051.272552828758	666.1273777242001	1182.486932553979	1996.508574424711	661.4664684718532	1140.935931578568	
